<?xml version="1.0" encoding="utf-8"?>
<!-- Generator: Adobe Illustrator 17.0.0, SVG Export Plug-In . SVG Version: 6.00 Build 0)  -->
<!DOCTYPE svg PUBLIC "-//W3C//DTD SVG 1.1//EN" "http://www.w3.org/Graphics/SVG/1.1/DTD/svg11.dtd">
<svg version="1.1" id="Layer_1" xmlns="http://www.w3.org/2000/svg" xmlns:xlink="http://www.w3.org/1999/xlink" x="0px" y="0px"
	 width="100px" height="100px" viewBox="0 0 100 100" enable-background="new 0 0 100 100" xml:space="preserve">
<g id="Captions">
</g>
<g id="Layer_7" display="none">
	<path display="inline" d="M14.064,38.02v24.115c4.91,0,8.881,3.936,8.967,8.828h53.936c0.088-4.893,4.061-8.828,8.969-8.828V38.02
		c-4.963,0-8.98-4.016-8.98-8.982H23.047C23.047,34.004,19.029,38.02,14.064,38.02z"/>
</g>
<g id="Your_Icon" display="none">
	<path display="inline" d="M67.992,18.838h-35.98L14.018,50.001l17.994,31.161h35.98l17.99-31.161L67.992,18.838z M49.85,64.994
		c-8.281,0-14.992-6.715-14.992-14.993c0-8.279,6.711-14.993,14.992-14.993c8.279,0,14.992,6.714,14.992,14.993
		C64.842,58.279,58.129,64.994,49.85,64.994z"/>
</g>
<g id="Layer_6">
	<path d="M16.118,71.191c-6.379,0-12.559,3.584-13.249,3.994l3.878,6.483c0.047-0.028,5.017-2.924,9.371-2.924
		c1.854,0,2.801,0.524,4.226,1.324c1.717,0.95,3.847,2.14,7.243,2.14c3.437,0,5.521-1.256,7.049-2.178
		c1.334-0.796,2.141-1.286,4.103-1.286c2.01,0,2.941,0.529,4.351,1.332c1.662,0.947,3.73,2.132,7.118,2.132
		c3.505,0,5.836-1.256,7.711-2.256c1.477-0.796,2.3-1.207,3.437-1.207c1.088,0,1.811,0.363,3.221,1.133
		c1.813,0.982,4.302,2.331,8.172,2.331c3.881,0,6.348-1.354,8.152-2.341c1.38-0.758,2.093-1.123,3.163-1.123
		c2.561,0,7.311,1.887,9.71,3.071l3.357-6.769c-0.794-0.396-7.913-3.854-13.066-3.854c-3.054,0-5.129,1.136-6.797,2.053
		c-0.551,0.298-1.049,0.555-1.548,0.776c0.985-17.259,10.918-35.089,10.918-35.089l-9.196-2.86V12.742H61.146V5.206h-22.03v7.536
		h-16.3v23.33l-9.193,2.86c0,0,9.845,17.469,10.908,34.813c-0.162-0.092-0.323-0.176-0.506-0.277
		C22.297,72.506,19.932,71.191,16.118,71.191z M31.318,20.291h37.63v13.151l-18.816-5.841l-18.814,5.84V20.291z"/>
	<path d="M77.268,85.832c-1.49,0.814-2.571,1.409-4.518,1.409c-1.952,0-3.056-0.593-4.576-1.421
		c-1.681-0.914-3.771-2.039-6.818-2.039c-3.09,0-5.263,1.163-7.005,2.094c-1.47,0.796-2.536,1.366-4.143,1.366
		c-1.391,0-2.095-0.406-3.38-1.136c-1.72-0.982-4.08-2.325-8.089-2.325c-4.059,0-6.334,1.367-7.997,2.367
		c-1.208,0.73-1.813,1.093-3.155,1.093c-1.435,0-2.237-0.445-3.563-1.184c-1.728-0.966-4.092-2.277-7.906-2.277
		c-6.379,0-12.559,3.587-13.249,3.994l3.878,6.485c0.047-0.031,5.017-2.927,9.371-2.927c1.854,0,2.801,0.531,4.226,1.322
		c1.717,0.953,3.847,2.14,7.243,2.14c3.437,0,5.521-1.252,7.049-2.173c1.334-0.802,2.141-1.288,4.103-1.288
		c2.01,0,2.941,0.533,4.351,1.332c1.662,0.947,3.73,2.129,7.118,2.129c3.505,0,5.836-1.252,7.711-2.256
		c1.477-0.791,2.3-1.204,3.437-1.204c1.088,0,1.811,0.362,3.221,1.132c1.813,0.984,4.302,2.329,8.172,2.329
		c3.881,0,6.348-1.351,8.152-2.34c1.38-0.759,2.093-1.121,3.163-1.121c2.561,0,7.311,1.883,9.71,3.068l3.357-6.765
		c-0.794-0.396-7.913-3.857-13.066-3.857C81.011,83.78,78.935,84.911,77.268,85.832z"/>
</g>
<g id="Layer_5" display="none">
	<path display="inline" d="M50,26.014c13.227,0,23.989,10.758,23.989,23.986S63.227,73.987,50,73.987
		c-13.228,0-23.99-10.759-23.99-23.987S36.772,26.014,50,26.014 M50,14.018c-19.873,0-35.98,16.109-35.98,35.982
		S30.127,85.982,50,85.982S85.98,69.873,85.98,50S69.873,14.018,50,14.018L50,14.018z"/>
</g>
<g id="Layer_4" display="none">
	<polygon display="inline" points="66.498,16.166 83.459,33.127 66.498,50.089 83.459,67.05 66.498,84.014 49.535,67.05 
		32.573,84.014 15.611,67.05 32.573,50.089 15.611,33.127 32.573,16.166 49.535,33.127 	"/>
</g>
</svg>
