<?xml version="1.0" encoding="utf-8"?>
<!-- Generator: Adobe Illustrator 17.0.0, SVG Export Plug-In . SVG Version: 6.00 Build 0)  -->
<!DOCTYPE svg PUBLIC "-//W3C//DTD SVG 1.1//EN" "http://www.w3.org/Graphics/SVG/1.1/DTD/svg11.dtd">
<svg version="1.1" id="Layer_1" xmlns="http://www.w3.org/2000/svg" xmlns:xlink="http://www.w3.org/1999/xlink" x="0px" y="0px"
	 width="53.833px" height="51.778px" viewBox="0 0 53.833 51.778" enable-background="new 0 0 53.833 51.778" xml:space="preserve">
<ellipse fill="#FFFFFF" stroke="#000000" stroke-miterlimit="10" cx="26.667" cy="26.944" rx="24.167" ry="23.65"/>
<g>
	<g id="Captions_1_">
	</g>
	<g id="Layer_7_1_" display="none">
		<path display="inline" d="M14.731,21.965v8.009c1.631,0,2.95,1.307,2.978,2.932h17.914c0.029-1.625,1.349-2.932,2.979-2.932
			v-8.009c-1.648,0-2.983-1.334-2.983-2.983H17.715C17.715,20.631,16.38,21.965,14.731,21.965z"/>
	</g>
	<g id="Your_Icon_1_" display="none">
		<path display="inline" d="M32.642,15.594h-11.95l-5.976,10.35l5.976,10.35h11.95l5.975-10.35L32.642,15.594z M26.617,30.924
			c-2.75,0-4.979-2.23-4.979-4.98c0-2.75,2.229-4.98,4.979-4.98c2.75,0,4.979,2.23,4.979,4.98
			C31.596,28.694,29.367,30.924,26.617,30.924z"/>
	</g>
	<g id="Layer_6_1_">
		<path d="M15.413,32.983c-2.119,0-4.171,1.19-4.4,1.327l1.288,2.153c0.016-0.009,1.666-0.971,3.112-0.971
			c0.616,0,0.93,0.174,1.404,0.44c0.57,0.316,1.278,0.711,2.406,0.711c1.142,0,1.834-0.417,2.341-0.723
			c0.443-0.264,0.711-0.427,1.363-0.427c0.668,0,0.977,0.176,1.445,0.442c0.552,0.315,1.239,0.708,2.364,0.708
			c1.164,0,1.938-0.417,2.561-0.749c0.491-0.264,0.764-0.401,1.142-0.401c0.361,0,0.602,0.121,1.07,0.376
			c0.602,0.326,1.429,0.774,2.714,0.774c1.289,0,2.108-0.45,2.708-0.778c0.458-0.252,0.695-0.373,1.051-0.373
			c0.851,0,2.428,0.627,3.225,1.02l1.115-2.248c-0.264-0.132-2.628-1.28-4.34-1.28c-1.014,0-1.704,0.377-2.258,0.682
			c-0.183,0.099-0.348,0.184-0.514,0.258c0.327-5.732,3.626-11.654,3.626-11.654l-3.054-0.95V13.57h-5.413v-2.503h-7.317v2.503
			h-5.414v7.749l-3.053,0.95c0,0,3.27,5.802,3.623,11.563c-0.054-0.031-0.107-0.058-0.168-0.092
			C17.465,33.419,16.68,32.983,15.413,32.983z M20.462,16.077H32.96v4.368l-6.249-1.94l-6.249,1.94
			C20.462,20.444,20.462,16.077,20.462,16.077z"/>
		<path d="M35.723,37.845c-0.495,0.27-0.854,0.468-1.501,0.468c-0.648,0-1.015-0.197-1.52-0.472
			c-0.558-0.304-1.252-0.677-2.265-0.677c-1.026,0-1.748,0.386-2.327,0.695c-0.488,0.264-0.842,0.454-1.376,0.454
			c-0.462,0-0.696-0.135-1.123-0.377c-0.571-0.326-1.355-0.772-2.687-0.772c-1.348,0-2.104,0.454-2.656,0.786
			c-0.401,0.242-0.602,0.363-1.048,0.363c-0.477,0-0.743-0.148-1.183-0.393c-0.574-0.321-1.359-0.756-2.626-0.756
			c-2.119,0-4.171,1.191-4.4,1.327l1.288,2.154c0.016-0.01,1.666-0.972,3.112-0.972c0.616,0,0.93,0.176,1.404,0.439
			c0.57,0.317,1.278,0.711,2.406,0.711c1.142,0,1.834-0.416,2.341-0.722c0.443-0.266,0.711-0.428,1.363-0.428
			c0.668,0,0.977,0.177,1.445,0.442c0.552,0.315,1.239,0.707,2.364,0.707c1.164,0,1.938-0.416,2.561-0.749
			c0.491-0.263,0.764-0.4,1.142-0.4c0.361,0,0.602,0.12,1.07,0.376c0.602,0.327,1.429,0.774,2.714,0.774
			c1.289,0,2.108-0.449,2.708-0.777c0.458-0.252,0.695-0.372,1.051-0.372c0.851,0,2.428,0.625,3.225,1.019l1.115-2.247
			c-0.264-0.132-2.628-1.281-4.34-1.281C36.967,37.164,36.277,37.54,35.723,37.845z"/>
	</g>
	<g id="Layer_5_1_" display="none">
		<path display="inline" d="M26.667,17.978c4.393,0,7.968,3.573,7.968,7.967s-3.574,7.967-7.968,7.967
			c-4.394,0-7.968-3.573-7.968-7.967S22.273,17.978,26.667,17.978 M26.667,13.993c-6.601,0-11.95,5.35-11.95,11.951
			s5.35,11.951,11.95,11.951s11.95-5.35,11.95-11.951S33.267,13.993,26.667,13.993L26.667,13.993z"/>
	</g>
	<g id="Layer_4_1_" display="none">
		<polygon display="inline" points="32.146,14.707 37.78,20.34 32.146,25.974 37.78,31.607 32.146,37.242 26.512,31.607 
			20.879,37.242 15.245,31.607 20.879,25.974 15.245,20.34 20.879,14.707 26.512,20.34 		"/>
	</g>
</g>
</svg>
