<?xml version="1.0" encoding="utf-8"?>
<!-- Generator: Adobe Illustrator 17.0.0, SVG Export Plug-In . SVG Version: 6.00 Build 0)  -->
<!DOCTYPE svg PUBLIC "-//W3C//DTD SVG 1.1//EN" "http://www.w3.org/Graphics/SVG/1.1/DTD/svg11.dtd">
<svg version="1.1" id="Layer_1" xmlns="http://www.w3.org/2000/svg" xmlns:xlink="http://www.w3.org/1999/xlink" x="0px" y="0px"
	 width="100px" height="97.222px" viewBox="0 0 100 97.222" enable-background="new 0 0 100 97.222" xml:space="preserve">
<path d="M94.697,57.037l-6.085-40.905c0,0-1.389-9.414-11.296-9.414H24.479c-9.907,0.001-11.298,9.414-11.298,9.414L7.099,57.037
	l2.433,13.52L7.968,72.44v9.584h6.605v8.558h15.99v-8.558h40.669v8.558h15.991v-8.558h6.604V72.44l-1.565-1.883L94.697,57.037z
	 M32.734,8.772H69.06v9.584H32.734V8.772z M14.833,23.149l16.337-1.712h17.207v26.015H11.705L14.833,23.149z M29.91,65.082
	c0,2.078-1.712,3.764-3.824,3.764c-1.622,0-3.007-0.996-3.563-2.4c-0.556,1.403-1.941,2.4-3.564,2.4
	c-2.112,0-3.824-1.686-3.824-3.764c0-2.081,1.713-3.766,3.824-3.766c1.622,0,3.007,0.995,3.564,2.399
	c0.555-1.404,1.94-2.399,3.563-2.399C28.198,61.315,29.91,63.002,29.91,65.082z M87.57,74.323H14.225v-1.371H87.57V74.323z
	 M71.884,65.082c0-2.081,1.712-3.766,3.824-3.766c1.622,0,3.007,0.995,3.564,2.399c0.555-1.404,1.94-2.399,3.562-2.399
	c2.112,0,3.823,1.686,3.823,3.766c0,2.078-1.711,3.764-3.823,3.764c-1.622,0-3.007-0.996-3.562-2.4
	c-0.557,1.403-1.942,2.4-3.564,2.4C73.595,68.847,71.884,67.16,71.884,65.082z M53.417,47.452V21.437h17.208l16.337,1.712
	l3.128,24.303H53.417z"/>
</svg>
