<?xml version="1.0" encoding="utf-8"?>
<!-- Generator: Adobe Illustrator 17.0.0, SVG Export Plug-In . SVG Version: 6.00 Build 0)  -->
<!DOCTYPE svg PUBLIC "-//W3C//DTD SVG 1.1//EN" "http://www.w3.org/Graphics/SVG/1.1/DTD/svg11.dtd">
<svg version="1.1" id="Layer_1" xmlns="http://www.w3.org/2000/svg" xmlns:xlink="http://www.w3.org/1999/xlink" x="0px" y="0px"
	 width="53.833px" height="51.778px" viewBox="0 0 53.833 51.778" enable-background="new 0 0 53.833 51.778" xml:space="preserve">
<ellipse fill="#FFFFFF" stroke="#000000" stroke-miterlimit="10" cx="26.667" cy="26.944" rx="24.167" ry="23.65"/>
<path d="M42.697,30.803L40.41,15.425c0,0-0.522-3.539-4.247-3.539H16.299c-3.724,0-4.247,3.539-4.247,3.539L9.765,30.803
	l0.915,5.083l-0.588,0.708v3.603h2.483v3.217h6.011v-3.217h15.289v3.217h6.012v-3.217h2.483v-3.603l-0.588-0.708L42.697,30.803z
	 M19.403,12.658h13.656v3.603H19.403V12.658z M12.673,18.063l6.142-0.644h6.469v9.78H11.497L12.673,18.063z M18.341,33.828
	c0,0.781-0.643,1.415-1.437,1.415c-0.61,0-1.131-0.375-1.339-0.902c-0.209,0.528-0.73,0.902-1.34,0.902
	c-0.794,0-1.437-0.634-1.437-1.415c0-0.782,0.644-1.416,1.437-1.416c0.61,0,1.131,0.374,1.34,0.902
	c0.209-0.528,0.729-0.902,1.339-0.902C17.698,32.411,18.341,33.045,18.341,33.828z M40.018,37.302H12.444v-0.515h27.573V37.302z
	 M34.121,33.828c0-0.782,0.643-1.416,1.437-1.416c0.61,0,1.131,0.374,1.34,0.902c0.209-0.528,0.729-0.902,1.339-0.902
	c0.794,0,1.437,0.634,1.437,1.416c0,0.781-0.643,1.415-1.437,1.415c-0.61,0-1.131-0.375-1.339-0.902
	c-0.209,0.528-0.73,0.902-1.34,0.902C34.764,35.243,34.121,34.609,34.121,33.828z M27.178,27.2v-9.78h6.469l6.142,0.644l1.176,9.136
	H27.178z"/>
</svg>
