<?xml version="1.0" encoding="utf-8"?>
<!-- Generator: Adobe Illustrator 17.0.0, SVG Export Plug-In . SVG Version: 6.00 Build 0)  -->
<!DOCTYPE svg PUBLIC "-//W3C//DTD SVG 1.1//EN" "http://www.w3.org/Graphics/SVG/1.1/DTD/svg11.dtd">
<svg version="1.1" id="Layer_1" xmlns="http://www.w3.org/2000/svg" xmlns:xlink="http://www.w3.org/1999/xlink" x="0px" y="0px"
	 width="95.73px" height="119.5px" viewBox="0 0 95.73 119.5" enable-background="new 0 0 95.73 119.5" xml:space="preserve">
<path d="M41.116,8.393c-2.31-0.008-4.192-1.89-4.197-4.196C36.924,1.858,38.806-0.025,41.116,0c2.333-0.025,4.214,1.858,4.196,4.197
	C45.33,6.502,43.447,8.384,41.116,8.393L41.116,8.393z"/>
<path d="M52.306,8.393c2.314-0.008,4.197-1.89,4.197-4.196c0-2.339-1.883-4.221-4.197-4.197c-2.33-0.025-4.212,1.858-4.197,4.197
	C48.094,6.502,49.976,8.384,52.306,8.393L52.306,8.393z"/>
<path d="M68.968,93.286c5.822-0.967,11.627-7.048,11.614-14.47V24.63c0.014-7.64-6.423-14.664-15.143-14.655H46.771H28.039
	c-8.772-0.008-15.21,7.016-15.202,14.655v54.186c-0.008,7.422,5.798,13.505,11.614,14.47L7,119.5h10.093l12.466-18.367H46.71h17.149
	L76.385,119.5H86.42L68.968,93.286z M36.858,15.572c0.002-1.358,1.158-2.476,2.492-2.495h7.359h7.36
	c1.335,0.019,2.495,1.138,2.495,2.495v4.253c0,1.354-1.095,2.5-2.495,2.495H46.71h-7.359c-1.395,0.005-2.489-1.141-2.492-2.495
	v-4.253H36.858z M27.675,85.383c-3.656-0.027-6.636-3.008-6.627-6.69c-0.008-3.67,2.972-6.647,6.627-6.629
	c3.693-0.019,6.673,2.959,6.69,6.629C34.349,82.376,31.367,85.355,27.675,85.383z M28.527,50.173
	c-4.192-0.025-7.611-2.893-7.603-7.604v-9.728c0.03-4.058,2.652-7.595,7.603-7.604H46.71h18.182c4.957,0.008,7.58,3.546,7.604,7.604
	v9.728c0.013,4.711-3.406,7.58-7.604,7.604H46.71H28.527z M58.935,78.694c-0.011-3.67,2.966-6.647,6.626-6.629
	c3.693-0.019,6.673,2.959,6.692,6.629c-0.019,3.682-2.999,6.661-6.692,6.69C61.901,85.355,58.924,82.376,58.935,78.694z"/>
</svg>
