<?xml version="1.0" encoding="utf-8"?>
<!-- Generator: Adobe Illustrator 17.0.0, SVG Export Plug-In . SVG Version: 6.00 Build 0)  -->
<!DOCTYPE svg PUBLIC "-//W3C//DTD SVG 1.1//EN" "http://www.w3.org/Graphics/SVG/1.1/DTD/svg11.dtd">
<svg version="1.1" id="Layer_1" xmlns="http://www.w3.org/2000/svg" xmlns:xlink="http://www.w3.org/1999/xlink" x="0px" y="0px"
	 width="53.833px" height="51.778px" viewBox="0 0 53.833 51.778" enable-background="new 0 0 53.833 51.778" xml:space="preserve">
<ellipse fill="#FFFFFF" stroke="#000000" stroke-miterlimit="10" cx="26.667" cy="26.944" rx="24.167" ry="23.65"/>
<g>
	<path d="M24.744,10.062c-0.691-0.002-1.254-0.539-1.255-1.198c0.001-0.668,0.564-1.205,1.255-1.198
		c0.698-0.007,1.26,0.53,1.255,1.198C26.004,9.523,25.441,10.06,24.744,10.062L24.744,10.062z"/>
	<path d="M28.09,10.062c0.692-0.002,1.255-0.539,1.255-1.198c0-0.668-0.563-1.205-1.255-1.198c-0.697-0.007-1.26,0.53-1.255,1.198
		C26.831,9.523,27.393,10.06,28.09,10.062L28.09,10.062z"/>
	<path d="M33.073,34.295c1.741-0.276,3.477-2.012,3.473-4.13V14.697c0.004-2.181-1.921-4.186-4.528-4.183h-5.582h-5.601
		c-2.623-0.002-4.548,2.003-4.546,4.183v15.467c-0.002,2.119,1.734,3.855,3.473,4.13l-5.218,7.483h3.018l3.728-5.243h5.129h5.128
		l3.746,5.243h3.001L33.073,34.295z M23.471,12.112c0.001-0.388,0.346-0.707,0.745-0.712h2.201h2.201
		c0.399,0.005,0.746,0.325,0.746,0.712v1.214c0,0.386-0.327,0.714-0.746,0.712h-2.201h-2.201c-0.417,0.001-0.744-0.326-0.745-0.712
		L23.471,12.112C23.471,12.112,23.471,12.112,23.471,12.112z M20.725,32.039c-1.093-0.008-1.984-0.859-1.982-1.91
		c-0.002-1.048,0.889-1.897,1.982-1.892c1.104-0.005,1.995,0.845,2.001,1.892C22.72,31.181,21.829,32.031,20.725,32.039z
		 M20.979,21.988c-1.254-0.007-2.276-0.826-2.274-2.171v-2.777c0.009-1.158,0.793-2.168,2.274-2.171h5.437h5.437
		c1.482,0.002,2.267,1.012,2.274,2.171v2.777c0.004,1.345-1.019,2.164-2.274,2.171h-5.437H20.979z M30.072,30.13
		c-0.003-1.048,0.887-1.897,1.981-1.892c1.104-0.005,1.995,0.845,2.001,1.892c-0.006,1.051-0.897,1.901-2.001,1.91
		C30.959,32.031,30.069,31.181,30.072,30.13z"/>
</g>
</svg>
