<?xml version="1.0" encoding="utf-8"?>
<!-- Generator: Adobe Illustrator 17.0.0, SVG Export Plug-In . SVG Version: 6.00 Build 0)  -->
<!DOCTYPE svg PUBLIC "-//W3C//DTD SVG 1.1//EN" "http://www.w3.org/Graphics/SVG/1.1/DTD/svg11.dtd">
<svg version="1.1" id="Layer_1" xmlns="http://www.w3.org/2000/svg" xmlns:xlink="http://www.w3.org/1999/xlink" x="0px" y="0px"
	 width="112.5px" height="112.5px" viewBox="0 0 112.5 112.5" enable-background="new 0 0 112.5 112.5" xml:space="preserve">
<g>
	<path d="M82.615,85.218c0,0,0.46-0.597,1.224-1.678c-7.991-2.959-16.522-4.516-25.292-4.516c-9.169,0-18.07,1.706-26.372,4.934
		c0.582,0.812,0.926,1.257,0.926,1.257c0.837,0.955,1.666,1.847,2.485,2.681L19.133,112.5h9.785l12.974-19.103
		c9.231,6.772,15.967,6.259,15.967,6.259s6.733,0.513,15.963-6.259L86.796,112.5h9.787L80.128,87.9
		C80.949,87.067,81.778,86.174,82.615,85.218z"/>
	<path d="M58.547,77.061c9.179,0,18.1,1.666,26.439,4.818c6.591-9.74,23.483-38.344,5.319-52.46c0,0-6.946-4.204-8.76-13.334
		c0,0-0.053-0.251-0.166-0.653C79.271,6.72,70.464,1.161,57.858,0.854C45.251,1.162,36.444,6.721,34.335,15.433
		c-0.112,0.402-0.166,0.653-0.166,0.653c-1.815,9.13-8.76,13.334-8.76,13.334c-18.434,14.323-0.762,43.574,5.605,52.881
		C39.666,78.872,48.968,77.061,58.547,77.061z M72.625,45.446h-7.279c-1.697,0-3.075-1.378-3.075-3.076
		c0-1.699,1.378-3.077,3.075-3.077h7.279c1.699,0,3.076,1.378,3.076,3.077C75.701,44.068,74.323,45.446,72.625,45.446z
		 M40.567,23.477v-3.593c0-4.531,3.558-8.203,7.945-8.203h18.691c4.389,0,7.945,3.671,7.945,8.203v3.593v0.897
		c0,2.051-1.61,3.712-3.596,3.712h-4.349H48.512h-4.349c-1.987,0-3.597-1.661-3.597-3.712v-0.897H40.567z M43.094,39.294h7.276
		c1.698,0,3.077,1.378,3.077,3.077c0,1.698-1.379,3.076-3.077,3.076h-7.276c-1.698,0-3.076-1.378-3.076-3.076
		C40.016,40.672,41.396,39.294,43.094,39.294z"/>
</g>
</svg>
