<?xml version="1.0" encoding="utf-8"?>
<!-- Generator: Adobe Illustrator 17.0.0, SVG Export Plug-In . SVG Version: 6.00 Build 0)  -->
<!DOCTYPE svg PUBLIC "-//W3C//DTD SVG 1.1//EN" "http://www.w3.org/Graphics/SVG/1.1/DTD/svg11.dtd">
<svg version="1.1" id="Layer_1" xmlns="http://www.w3.org/2000/svg" xmlns:xlink="http://www.w3.org/1999/xlink" x="0px" y="0px"
	 width="53.833px" height="51.778px" viewBox="0 0 53.833 51.778" enable-background="new 0 0 53.833 51.778" xml:space="preserve">
<ellipse fill="#FFFFFF" stroke="#000000" stroke-miterlimit="10" cx="26.667" cy="26.944" rx="24.167" ry="23.65"/>
<g>
	<g>
		<path d="M33.882,35.038c0,0,0.129-0.191,0.344-0.538c-2.248-0.949-4.648-1.448-7.116-1.448c-2.58,0-5.084,0.547-7.42,1.582
			c0.164,0.26,0.261,0.403,0.261,0.403c0.235,0.306,0.469,0.592,0.699,0.859l-4.629,7.887h2.753l3.65-6.124
			c2.597,2.171,4.492,2.006,4.492,2.006s1.894,0.164,4.491-2.006l3.65,6.124h2.754l-4.63-7.886
			C33.414,35.63,33.647,35.344,33.882,35.038z"/>
		<path d="M27.111,32.423c2.583,0,5.092,0.534,7.439,1.544c1.854-3.122,6.607-12.291,1.497-16.816c0,0-1.954-1.348-2.465-4.274
			c0,0-0.015-0.08-0.047-0.209c-0.593-2.793-3.071-4.575-6.618-4.673c-3.547,0.099-6.025,1.881-6.618,4.673
			c-0.032,0.129-0.047,0.209-0.047,0.209c-0.511,2.927-2.465,4.274-2.465,4.274c-5.186,4.591-0.214,13.968,1.577,16.951
			C21.799,33.004,24.416,32.423,27.111,32.423z M31.072,22.289h-2.048c-0.477,0-0.865-0.442-0.865-0.986
			c0-0.545,0.388-0.986,0.865-0.986h2.048c0.478,0,0.865,0.442,0.865,0.986C31.937,21.847,31.549,22.289,31.072,22.289z
			 M22.052,15.246v-1.152c0-1.452,1.001-2.63,2.235-2.63h5.259c1.235,0,2.235,1.177,2.235,2.63v1.152v0.288
			c0,0.657-0.453,1.19-1.012,1.19h-1.224h-5.259h-1.224c-0.559,0-1.012-0.532-1.012-1.19L22.052,15.246L22.052,15.246z
			 M22.763,20.317h2.047c0.478,0,0.866,0.442,0.866,0.986c0,0.544-0.388,0.986-0.866,0.986h-2.047c-0.478,0-0.865-0.442-0.865-0.986
			C21.897,20.758,22.285,20.317,22.763,20.317z"/>
	</g>
</g>
</svg>
